<svg id="Capa_1" enable-background="new 0 0 512 512" height="512" viewBox="0 0 512 512" width="512" xmlns="http://www.w3.org/2000/svg"><g><path d="m.085 247.339c.361-10.76 1.39-21.355 3.048-31.745.278-1.745 9.54-3.517 9.854-5.25 1.819-10.049 4.228-19.897 7.189-29.507.542-1.76-7.862-3.48-7.283-5.224 33.822-101.834 130.049-175.613 243.078-175.613 141.401.001 256.029 114.615 256.029 256 0 11.841-.804 23.494-2.36 34.908-.744 5.455-5.372 9.539-10.878 9.539h-456.735c-23.03 0-42.046-50.016-41.942-53.108z" fill="#a7d0fc"/><path d="m460.117 138.883c0 8.284-6.716 15-15.002 15h-70.008c-8.285 0-15.002-6.716-15.002-15s6.716-15 15.002-15h70.008c8.285 0 15.002 6.716 15.002 15zm-298.643-8.883h-5.001v-5c0-8.284-6.716-15-15.002-15h-30.004c-8.285 0-15.002 6.716-15.002 15v5h-5.001c-8.285 0-15.002 6.716-15.002 15s6.716 15 15.002 15h70.008c8.285 0 15.002-6.716 15.002-15 .002-8.284-6.715-15-15-15zm74.288 67.826h-40.005c-8.285 0-15.002 6.716-15.002 15s6.716 15 15.002 15h40.005c8.285 0 15.002-6.716 15.002-15s-6.717-15-15.002-15zm31.473-172.826h-40.005c-8.285 0-15.002 6.716-15.002 15s6.716 15 15.002 15h40.005c8.285 0 15.002-6.716 15.002-15s-6.716-15-15.002-15z" fill="#c8e2fd"/><path d="m509.662 290.739c-16.954 124.953-124.075 221.261-253.692 221.261-70.012 0-133.461-28.098-179.681-73.632-1.579-1.555-3.285-22.513-3.285-31.582 0-41.775-10.007-81.212-27.755-116.047h83.943l22.17-65.835 18.634 55.333 61.376-30.451-20.323 40.952h298.613z" fill="#1ed688"/><path d="m371.01 175.06c-4.023.988-8.085-1.472-9.074-5.495l-22.663-92.258c-.988-4.023 1.472-8.084 5.495-9.073 4.023-.988 8.085 1.472 9.074 5.495l22.662 92.258c.989 4.023-1.472 8.085-5.494 9.073z" fill="#c9885b"/><path d="m427.283 58.268-87.413 21.467-14.313-58.268 87.412-21.467-7.412 32.712z" fill="#169b62"/><path d="m429.99 260h-100.011l-20.002-100h140.017z" fill="#1ab975"/><path d="m343.001 160 20.002 100h-33.025l-20.002-100z" fill="#169b62"/><path d="m469.995 160c0 5.523-4.236 10-9.461 10h-151.375c-5.225 0-9.461-4.477-9.461-10s4.236-10 9.461-10h151.375c5.225 0 9.461 4.477 9.461 10z" fill="#1ed688"/><path d="m354.458 76.153-14.588 3.583-14.313-58.268 14.588-3.583z" fill="#106e46"/><path d="m73.942 425.819c-1.415 3.355-5.867 4.117-8.304 1.41-12.07-13.405-22.744-28.091-31.793-43.83-.696-1.21 1.573-2.709.897-3.931-1.492-2.696-2.936-5.422-4.333-8.177-.534-1.054-4.017-1.83-4.537-2.893-15.6-31.867-24.773-67.452-25.831-105.068 0-.003.036-.03.105-.08 4.488-3.222 10.444-3.664 15.326-1.079 40.753 21.575 68.517 64.409 68.517 113.726.003 17.705-3.575 34.573-10.047 49.922zm425.128-12.952c20.419-68.027-18.18-139.724-86.215-160.141s-139.741 18.178-160.16 86.205 18.18 139.724 86.215 160.141 139.741-18.178 160.16-86.205z" fill="#76b6fa"/><path d="m499.07 412.867c-.344 1.146-.703 2.284-1.076 3.414l-119.163-35.76-35.925 119.682c-1.334-.354-2.666-.731-3.997-1.131-68.035-20.417-106.634-92.115-86.215-160.141.344-1.146.703-2.284 1.076-3.414l119.163 35.76 35.925-119.682c1.334.354 2.666.731 3.997 1.13 68.035 20.418 106.635 92.116 86.215 160.142z" fill="#86befb"/><path d="m91.492 375.899c0 22.504-5.491 43.75-15.204 62.469-3.794-3.738-7.472-7.592-11.027-11.559 7.205-15.485 11.23-32.737 11.23-50.91 0-51.01-31.706-94.755-76.448-112.568-.068-2.435-.055-13.117.041-15.992 53.161 18.536 91.408 69.165 91.408 128.56zm420.508 0c0-75.046-61.062-136.101-136.117-136.101-75.056 0-136.118 61.055-136.118 136.101s61.063 136.101 136.118 136.101 136.117-61.055 136.117-136.101zm-15.002 0c0 66.775-54.332 121.101-121.115 121.101s-121.116-54.326-121.116-121.101 54.333-121.101 121.116-121.101 121.115 54.326 121.115 121.101z" fill="#254167"/><path d="m383.096 371.178-95.549-287.646c-.919-3.221-3.863-5.441-7.213-5.441h-75.009c-4.143 0-7.501 3.358-7.501 7.5s3.358 7.5 7.501 7.5h69.349l31.008 93.095h-288.051c-2.837 0-5.431 1.601-6.704 4.136s-1.006 5.572.69 7.846l116.145 155.821c-2.597 4.367-4.443 9.231-5.358 14.411h-96.53c2.495 5.097 5.155 10.1 7.972 15h88.558c3.559 20.147 21.195 35.5 42.35 35.5 23.713 0 43.005-19.29 43.005-43 0-7.997-2.195-15.49-6.013-21.911l110.466-148.201 56.46 169.509c.941 3.295 3.944 5.443 7.209 5.443.682 0 1.375-.094 2.063-.29 3.982-1.138 6.289-5.289 5.152-9.272zm-245.119-3.485.526.706h-.733c.066-.237.135-.472.207-.706zm34.316.706h-15.079l-10.414-13.972c4.864-4.073 11.128-6.528 17.954-6.528s13.09 2.455 17.954 6.528zm-7.54 35.5c-12.844 0-23.696-8.691-26.983-20.5h11.914l9.055 12.148c1.416 1.899 3.645 3.018 6.014 3.018 2.368 0 4.598-1.119 6.014-3.018l9.055-12.148h9.742c.79 0 1.551-.123 2.266-.349-3.169 11.987-14.107 20.849-27.077 20.849zm27.077-35.151c-.298-.094-.605-.171-.918-.228l.617-.827c.107.349.208.7.301 1.055zm-.152-26.356c-7.375-5.937-16.742-9.493-26.925-9.493-10.182 0-19.55 3.557-26.925 9.493l-105.252-141.207h264.354z" fill="#0a4499"/><path d="m390.385 375.899c0 8.008-6.493 14.5-14.502 14.5s-14.502-6.492-14.502-14.5 6.493-14.5 14.502-14.5 14.502 6.492 14.502 14.5z" fill="#2476ed"/><path d="m98.746 185.59v20c0 5.523-4.478 10-10.001 10h-85.634c2.177-13.727 5.445-27.091 9.713-40h75.92c5.524 0 10.002 4.478 10.002 10zm142.016-110h-110.012c-5.524 0-10.001 4.477-10.001 10s4.478 10 10.001 10h110.013c5.523 0 10.001-4.477 10.001-10 0-5.522-4.478-10-10.002-10z" fill="#c9885b"/><path d="m193.573 375.899c0 15.914-12.903 28.816-28.819 28.816s-28.819-12.901-28.819-28.816c0-15.914 12.903-28.816 28.819-28.816s28.819 12.901 28.819 28.816z" fill="#2476ed"/><path d="m375.883 397.899c-12.132 0-22.003-9.869-22.003-22s9.87-22 22.003-22c12.132 0 22.003 9.869 22.003 22s-9.87 22-22.003 22zm0-29c-3.86 0-7.001 3.14-7.001 7s3.141 7 7.001 7 7.001-3.14 7.001-7-3.141-7-7.001-7zm-203.629 2.271v69.191c0 4.142-3.358 7.5-7.501 7.5s-7.501-3.358-7.501-7.5v-69.191c0-4.142 3.358-7.5 7.501-7.5s7.501 3.358 7.501 7.5z" fill="#254167"/><path d="m464.984 392.136c-.144-.004-.289-.013-.435-.025-4.126-.362-7.179-4-6.817-8.126 4.112-46.926-30.724-88.449-77.656-92.561-4.126-.362-7.179-4-6.817-8.126.361-4.126 3.994-7.181 8.127-6.817 55.172 4.834 96.125 53.648 91.29 108.814-.349 3.98-3.747 6.96-7.692 6.841zm-189.258-13.482c.643 55.373 46.221 99.901 101.6 99.258 4.149-.046 7.461-3.445 7.413-7.586-.047-4.142-3.445-7.461-7.587-7.413-47.109.547-85.879-37.33-86.426-84.433-.047-4.142-3.445-7.461-7.587-7.413-.147.002-.291.008-.435.018-3.938.271-7.025 3.573-6.978 7.569z" fill="#fff"/></g></svg>